<?xml version="1.0" standalone="no"?>
<!DOCTYPE svg PUBLIC "-//W3C//DTD SVG 20010904//EN"
 "http://www.w3.org/TR/2001/REC-SVG-20010904/DTD/svg10.dtd">
<svg version="1.0" xmlns="http://www.w3.org/2000/svg"
 width="15px" height="15px" viewBox="0 0 1280.000000 1280.000000"
 preserveAspectRatio="xMidYMid meet">
<metadata>
Created by potrace 1.16, written by Peter Selinger 2001-2019
</metadata>
<g transform="translate(0.000000,1280.000000) scale(0.100000,-0.100000)"    
fill="#007cdc" stroke="none">
<path d="M5935 12789 c-1199 -96 -2299 -491 -3240 -1164 -334 -239 -572 -442
-870 -746 -948 -965 -1563 -2197 -1759 -3524 -54 -367 -61 -477 -61 -960 1
-481 6 -570 61 -945 168 -1158 659 -2246 1430 -3171 150 -180 556 -591 729
-738 1078 -916 2358 -1438 3760 -1532 251 -17 839 -6 1075 20 1307 142 2454
629 3465 1470 196 163 617 585 779 780 885 1065 1384 2301 1486 3681 13 176
13 707 0 885 -98 1322 -573 2538 -1391 3560 -315 393 -739 806 -1144 1111
-843 636 -1831 1053 -2875 1214 -328 51 -485 62 -920 65 -228 2 -464 -1 -525
-6z m680 -3204 c241 -11 573 -76 818 -161 1187 -413 2021 -1467 2147 -2713 13
-133 13 -489 0 -622 -31 -306 -108 -615 -221 -891 -454 -1104 -1467 -1860
-2654 -1978 -141 -14 -469 -14 -610 0 -656 65 -1262 322 -1764 749 -629 533
-1027 1293 -1111 2121 -14 135 -14 485 0 620 127 1249 959 2301 2146 2713 322
112 775 184 1074 170 30 -1 109 -5 175 -8z"/>
</g>
</svg>
